<?xml version="1.0" encoding="UTF-8"?>
<svg id="Ebene_2" data-name="Ebene 2" xmlns="http://www.w3.org/2000/svg" viewBox="0 0 2882.59 1673.21">
  <defs>
    <style>
      .cls-1 {
        fill: #f6d762;
      }

      .cls-2 {
        fill: #e84280;
      }

      .cls-3 {
        fill: #ec9a28;
      }
    </style>
  </defs>
  <g id="Ebene_1-2" data-name="Ebene 1">
    <g>
      <path class="cls-3" d="M2557.1,962.81c-1.44,1.2-2.87,2.4-4.31,3.6-61.23,51.22-130.63,79.28-250.1,119.3-129.62,40.49-194.94-175.93-270.28-318.79-11.17-20.64-22.19-42.17-33.87-64.97-63.12-123.29-134.66-263.03-260.69-316.93-39.55-17.06-76.63-17.18-110.21-.37-91.05,45.57-145.05,208.04-196.8,384.78-7.22,24.25-14.43,49.03-21.71,74.08-62.93,216.3-134.26,461.45-257.36,511.01-21.87,9.99-41.72,9.87-60.67-.41-95.47-51.7-155.99-342.47-214.51-623.67C806.36,393,733.74,44.06,585.96,2.01c-25.08-5.36-49.23,.04-71.75,16.03-110.56,78.51-170.54,409.35-234.06,759.6C215.32,1135.17,130.57,1648.04,5.1,1649.66H3.1l-.23,.15,.15,.11c-.31,1.11,.07,2.74,.07,2.74l-2.18,19.35c3.13,.32,3.53,0,6.6,0,119.74,0,196.94-344.39,257.08-649.35,5.82-29.47,14.46-58.27,25.79-85.88l.18-.44c57.3-139.51,122.84-251.58,228.89-251.58,136.93,0,208.71,193.01,278.13,379.67,71.83,193.16,146.11,392.89,296.48,392.89s224.65-199.73,296.48-392.89c69.41-186.66,141.18-379.67,278.12-379.67s208.72,193.02,278.14,379.67c71.83,193.16,146.12,362.89,296.49,362.89s224.66-123.96,296.49-317.12c21.98-59.11,44.26-92.31,68.75-120.55l-51.46-26.85Z"/>
      <path class="cls-1" d="M2717.09,868.06c-66.29,18.75-113.9,52.87-164.3,89-61.23,43.89-130.63,93.63-250.1,127.93-129.62,34.7-194.94-24.96-270.28-147.37-11.17-17.68-22.19-36.13-33.87-55.67-63.12-105.64-134.66-225.37-260.69-271.55-39.55-14.62-76.63-14.73-110.21-.32-91.05,39.04-145.05,178.27-196.8,329.7-7.22,20.78-14.43,42.02-21.71,63.47-62.93,185.33-134.26,395.39-257.36,437.85-21.87,8.57-41.72,8.46-60.67-.35-95.47-44.3-155.99-293.45-214.51-534.39-70.24-289.14-142.86-588.12-290.64-624.15-25.08-4.6-49.23,.03-71.75,13.73-110.56,67.27-170.54,350.75-234.06,650.86C215.22,1253.63,131.89,1651.26,6.1,1651.26c-2.02,0,9.16-1.39,12.22-1.39,119.74,0,186.13-231.81,246.28-493.11,5.82-25.25,14.46-49.93,25.79-73.58l.18-.38c57.3-119.54,122.84-215.57,228.89-215.57,136.93,0,208.71,165.38,278.13,325.32,71.83,165.51,146.11,336.65,296.48,336.65s224.65-171.14,296.48-336.65c69.41-159.94,141.18-325.32,278.12-325.32s208.72,165.38,278.14,325.32c71.83,165.51,146.12,336.65,296.49,336.65s224.66-171.14,296.49-336.65c42.77-98.53,86.66-199.6,145.79-262.27,25.56-27.09,61.58-43.75,100.62-48,28.7-3.12,59.92-3.56,94.25-1.32l2.12-26.77c-63.66-4.16-117.8,.39-165.5,13.88"/>
      <path class="cls-2" d="M2580.77,1100.44c-61.23,37.85-165.6,75.19-285.07,104.76-129.62,29.92-194.94-21.52-270.28-127.1-11.17-15.25-22.19-31.16-33.87-48.02-63.12-91.12-134.66-194.38-260.69-234.21-39.55-12.6-76.63-12.7-110.21-.28-91.05,33.68-145.05,153.75-196.8,284.37-7.22,17.92-14.43,36.24-21.71,54.74-62.93,159.85-134.26,341.03-257.36,377.65-21.87,7.38-41.72,7.29-60.67-.3-95.47-38.21-155.99-253.1-214.51-460.92-70.24-249.38-142.86-507.25-290.64-538.33-25.08-3.97-49.23,.03-71.75,11.85-110.56,58.03-170.54,302.52-234.06,561.37C208.23,1350.67,134.77,1650.04,8.98,1650.04c-2.02,0-4.06-.08-6.11-.23l-2.87,23.04c3.13,.24,6.21,.35,9.28,.35,119.74,0,188.19-180.74,248.33-406.11,5.82-21.77,14.46-43.06,25.79-63.46l.18-.33c57.3-103.1,122.84-185.93,228.89-185.93,136.93,0,208.71,142.64,278.13,280.59,71.83,142.75,146.11,290.36,296.48,290.36s224.65-147.62,296.48-290.36c69.41-137.94,141.18-280.59,278.12-280.59s208.72,142.64,278.14,280.59c71.83,142.75,146.12,290.36,296.49,290.36,102.05,0,169.05-67.97,224.02-156.27,44.85-72.04,76.24-149.63,95.63-229.51l24.79-102.12Z"/>
    </g>
  </g>
</svg>