<?xml version="1.0" encoding="UTF-8"?>
<svg id="Ebene_2" data-name="Ebene 2" xmlns="http://www.w3.org/2000/svg" xmlns:xlink="http://www.w3.org/1999/xlink" viewBox="0 0 4677.1 1673.21">
  <defs>
    <style>
      .cls-1 {
        fill: none;
      }

      .cls-2 {
        clip-path: url(#clippath);
      }

      .cls-3 {
        fill: #f6d762;
      }

      .cls-4 {
        fill: #e84280;
      }

      .cls-5 {
        fill: #ec9a28;
      }

      .cls-6 {
        fill: #616160;
      }

      .cls-7 {
        clip-path: url(#clippath-1);
      }

      .cls-8 {
        clip-path: url(#clippath-2);
      }
    </style>
    <clipPath id="clippath">
      <path class="cls-1" d="M3892.67,1422.99v-145.92h72.97v-96.18h-270.06v96.18h72.59v145.92h124.5Zm-402.54-127.41v-50.08h45.38c19.96,0,27.59,6.53,27.59,22.86,0,10.17-3.99,18.51-11.25,22.87-5.81,3.26-10.89,4.35-23.6,4.35h-38.11Zm204,127.41l-83.48-100.54c23.59-2.54,35.57-6.9,49.36-17.43,17.06-13.43,26.49-32.3,26.49-53.72s-9.79-42.11-26.13-54.44c-14.52-11.62-31.95-15.97-61.35-15.97h-233.4v242.11h124.5v-76.59l59.53,76.59h144.46Zm-484.22-97.28h-51.18l26.13-76.59,25.05,76.59Zm148.46,97.28l-76.23-242.11h-197.09l-77.32,242.11h127.05l8.71-31.22h80.95l8.71,31.22h125.23Z"/>
    </clipPath>
    <clipPath id="clippath-1">
      <path class="cls-6" d="M4470.92,967.24v-86.04h35.58c27.22,0,41.74,13.43,41.74,38.48,0,17.06-7.26,31.58-19.61,39.21-9.79,6.17-19.96,8.35-38.83,8.35h-18.88Zm-124.5,72.59h181.13c40.29,0,74.05-9.8,101.64-30.13,32.3-23.59,47.92-55.17,47.92-98.73,0-33.76-10.17-60.98-30.13-81.31-21.78-22.14-49.36-31.94-89.29-31.94h-211.26v242.11Zm-29.04,0v-242.11h-117.61v101.27l-68.97-101.27h-124.87v242.11h117.61v-108.53l84.21,108.53h109.63Zm-639.23-242.11v143.01c0,19.23,1.09,34.12,3.63,43.56,4.36,16.33,16.33,30.85,33.03,39.57,26.87,14.52,62.08,21.05,112.89,21.05,73.32,0,119.79-14.88,138.67-44.29,7.61-12.7,10.52-27.22,10.52-56.62v-146.28h-124.5v148.82c0,11.61-1.09,17.42-3.63,21.05-3.63,5.09-11.98,8.35-21.06,8.35s-17.78-3.26-21.41-8.35c-2.54-3.63-3.63-9.44-3.63-21.05v-148.82h-124.51Zm-189.48,75.14c27.59,0,42.11,15.97,42.11,46.46,0,38.48-13.79,57.34-41.74,57.34s-41.38-18.87-41.38-57.34c0-30.13,14.52-46.46,41.01-46.46m2.54-82.04c-115.06,0-169.15,41.02-169.15,128.51,0,42.46,14.88,77.67,41.38,96.91,28.32,20.33,70.06,30.49,125.6,30.49s97.64-10.16,125.96-30.49c26.49-19.24,41.38-54.45,41.38-97.28,0-46.1-15.97-80.58-46.1-100.19-28.31-18.15-69.33-27.95-119.06-27.95m-462.81,241.75c52.63,9.44,84.94,12.34,135.39,12.34,54.45,0,81.68-5.44,106.72-21.05,23.6-14.88,37.76-39.57,37.76-66.06s-15.25-51.54-38.11-60.26c-14.16-5.08-40.3-9.07-62.43-9.07h-43.57c-7.98,0-13.43-3.98-13.43-9.79,0-7.99,6.54-11.25,23.24-11.25h27.22c21.41,0,71.87,4.35,97.64,8.34v-71.14c-40.66-7.62-84.94-11.98-126.68-11.98-51.18,0-88.21,6.54-113.26,19.61-23.59,12.7-37.02,37.75-37.02,68.96,0,44.29,23.96,68.61,73.32,74.05,13.79,1.81,37.38,3.26,47.91,3.26h20.33c13.42,0,17.05,1.81,17.05,8.72,0,6.53-5.81,10.52-16.7,10.52-43.19,0-80.95-3.26-135.39-11.62v66.43Z"/>
    </clipPath>
    <clipPath id="clippath-2">
      <path class="cls-1" d="M3880.34,598.61v-35.58h52.64c15.6,0,21.41,5.08,21.41,17.78s-5.81,17.79-21.41,17.79h-52.64Zm0-84.22v-35.93h46.46c17.06,0,23.23,4.71,23.23,17.78s-6.16,18.15-23.23,18.15h-46.46Zm-124.5,142.29h230.14c54.81,0,90.39-25.41,90.39-64.61,0-19.96-10.53-37.75-27.59-45.74-11.25-5.81-20.33-7.99-41.02-9.8,19.96-4.35,29.4-7.98,40.66-15.6,16.33-11.25,26.14-29.04,26.14-48.28,0-17.06-7.26-32.3-20.33-43.19-13.07-10.53-27.59-14.88-50.82-14.88h-247.55v242.11Zm-26.5,0v-63.52h-153.17v-20.33h153.17v-58.08h-153.17v-22.51h153.17v-77.67h-277.69v242.11h277.69Zm-352.09,0l67.15-242.11h-122.69l-25.77,115.79-26.86-115.79h-82.04l-29.04,119.78-25.04-119.78h-125.23l67.88,242.11h118.69l30.86-110.35,30.49,110.35h121.6Z"/>
    </clipPath>
  </defs>
  <g id="Ebene_1-2" data-name="Ebene 1">
    <g>
      <path class="cls-5" d="M2557.1,962.81c-1.44,1.2-2.87,2.4-4.31,3.6-61.23,51.22-130.63,79.28-250.1,119.3-129.62,40.49-194.94-175.93-270.28-318.79-11.17-20.64-22.19-42.17-33.87-64.97-63.12-123.29-134.66-263.03-260.69-316.93-39.55-17.06-76.63-17.18-110.21-.37-91.05,45.57-145.05,208.04-196.8,384.78-7.22,24.25-14.43,49.03-21.71,74.08-62.93,216.3-134.26,461.45-257.36,511.01-21.87,9.99-41.72,9.87-60.67-.41-95.47-51.7-155.99-342.47-214.51-623.67C806.36,393,733.74,44.06,585.96,2.01c-25.08-5.36-49.23,.04-71.75,16.03-110.56,78.51-170.54,409.35-234.06,759.6C215.32,1135.17,130.57,1648.04,5.1,1649.66H3.1l-.23,.15,.15,.11c-.31,1.11,.07,2.74,.07,2.74l-2.18,19.35c3.13,.32,3.53,0,6.6,0,119.74,0,196.94-344.39,257.08-649.35,5.82-29.47,14.46-58.27,25.79-85.88l.18-.44c57.3-139.51,122.84-251.58,228.89-251.58,136.93,0,208.71,193.01,278.13,379.67,71.83,193.16,146.11,392.89,296.48,392.89s224.65-199.73,296.48-392.89c69.41-186.66,141.18-379.67,278.12-379.67s208.72,193.02,278.14,379.67c71.83,193.16,146.12,362.89,296.49,362.89s224.66-123.96,296.49-317.12c21.98-59.11,44.26-92.31,68.75-120.55l-51.46-26.85Z"/>
      <path class="cls-3" d="M2717.09,868.06c-66.29,18.75-113.9,52.87-164.3,89-61.23,43.89-130.63,93.63-250.1,127.93-129.62,34.7-194.94-24.96-270.28-147.37-11.17-17.68-22.19-36.13-33.87-55.67-63.12-105.64-134.66-225.37-260.69-271.55-39.55-14.62-76.63-14.73-110.21-.32-91.05,39.04-145.05,178.27-196.8,329.7-7.22,20.78-14.43,42.02-21.71,63.47-62.93,185.33-134.26,395.39-257.36,437.85-21.87,8.57-41.72,8.46-60.67-.35-95.47-44.3-155.99-293.45-214.51-534.39-70.24-289.14-142.86-588.12-290.64-624.15-25.08-4.6-49.23,.03-71.75,13.73-110.56,67.27-170.54,350.75-234.06,650.86C215.22,1253.63,131.89,1651.26,6.1,1651.26c-2.02,0,9.16-1.39,12.22-1.39,119.74,0,186.13-231.81,246.28-493.11,5.82-25.25,14.46-49.93,25.79-73.58l.18-.38c57.3-119.54,122.84-215.57,228.89-215.57,136.93,0,208.71,165.38,278.13,325.32,71.83,165.51,146.11,336.65,296.48,336.65s224.65-171.14,296.48-336.65c69.41-159.94,141.18-325.32,278.12-325.32s208.72,165.38,278.14,325.32c71.83,165.51,146.12,336.65,296.49,336.65s224.66-171.14,296.49-336.65c42.77-98.53,86.66-199.6,145.79-262.27,25.56-27.09,61.58-43.75,100.62-48,28.7-3.12,59.92-3.56,94.25-1.32l2.12-26.77c-63.66-4.16-117.8,.39-165.5,13.88"/>
      <path class="cls-4" d="M2580.77,1100.44c-61.23,37.85-165.6,75.19-285.07,104.76-129.62,29.92-194.94-21.52-270.28-127.1-11.17-15.25-22.19-31.16-33.87-48.02-63.12-91.12-134.66-194.38-260.69-234.21-39.55-12.6-76.63-12.7-110.21-.28-91.05,33.68-145.05,153.75-196.8,284.37-7.22,17.92-14.43,36.24-21.71,54.74-62.93,159.85-134.26,341.03-257.36,377.65-21.87,7.38-41.72,7.29-60.67-.3-95.47-38.21-155.99-253.1-214.51-460.92-70.24-249.38-142.86-507.25-290.64-538.33-25.08-3.97-49.23,.03-71.75,11.85-110.56,58.03-170.54,302.52-234.06,561.37C208.23,1350.67,134.77,1650.04,8.98,1650.04c-2.02,0-4.06-.08-6.11-.23l-2.87,23.04c3.13,.24,6.21,.35,9.28,.35,119.74,0,188.19-180.74,248.33-406.11,5.82-21.77,14.46-43.06,25.79-63.46l.18-.33c57.3-103.1,122.84-185.93,228.89-185.93,136.93,0,208.71,142.64,278.13,280.59,71.83,142.75,146.11,290.36,296.48,290.36s224.65-147.62,296.48-290.36c69.41-137.94,141.18-280.59,278.12-280.59s208.72,142.64,278.14,280.59c71.83,142.75,146.12,290.36,296.49,290.36,102.05,0,169.05-67.97,224.02-156.27,44.85-72.04,76.24-149.63,95.63-229.51l24.79-102.12Z"/>
      <g class="cls-2">
        <path class="cls-3" d="M3040.15,885.54c66.29,21.88,113.9,61.71,164.3,103.87,61.23,51.22,130.63,109.28,250.1,149.3,129.62,40.49,194.94-205.93,270.28-348.79,11.17-20.64,22.19-42.17,33.87-64.97,63.12-123.29,134.66-263.03,260.69-316.93,39.55-17.06,76.63-17.18,110.21-.37,91.05,45.57,145.05,208.04,196.8,384.78,7.22,24.25,14.43,49.03,21.71,74.08,62.93,216.3,134.26,461.45,257.36,511.01,21.87,9.99,41.72,9.87,60.67-.41,95.47-51.7,155.99-342.47,214.51-623.67,70.24-337.44,142.86-686.38,290.64-728.43,25.08-5.36,49.23,.04,71.75,16.03,110.56,78.51,170.54,409.35,234.06,759.6,64.93,358.11,148.25,869.21,274.05,869.21,2.02,0,4.06-.1,6.11-.31l2.87,31.19c-3.13,.32-6.21,.48-9.28,.48-119.74,0-198.05-350.57-258.2-655.53-5.82-29.47-14.46-58.27-25.79-85.88l-.18-.44c-57.3-139.51-122.84-251.58-228.89-251.58-136.93,0-208.71,193.01-278.13,379.67-71.83,193.16-146.11,392.89-296.48,392.89-150.36,0-224.65-199.73-296.48-392.89-69.41-186.66-141.18-379.67-278.12-379.67-136.95,0-208.72,193.02-278.14,379.67-71.83,193.16-146.12,392.89-296.49,392.89-150.38,0-224.66-123.96-296.49-317.12-42.77-115-86.66-131.92-145.79-205.06-25.56-31.62-61.58-51.05-100.62-56.01-28.7-3.65-59.92-4.15-94.25-1.54l-2.12-31.24c63.66-4.86,117.8,.45,165.5,16.2"/>
        <path class="cls-4" d="M3176.47,1123.44c61.23,37.85,165.6,75.19,285.07,104.76,129.62,29.92,194.94-21.52,270.28-127.1,11.17-15.25,22.19-31.16,33.87-48.02,63.12-91.12,134.66-194.38,260.69-234.21,39.55-12.6,76.63-12.7,110.21-.28,91.05,33.68,145.05,153.75,196.8,284.37,7.22,17.92,14.43,36.24,21.71,54.74,62.93,159.85,134.26,341.03,257.36,377.65,21.87,7.38,41.72,7.29,60.67-.3,95.47-38.21,155.99-253.1,214.51-460.92,70.24-249.38,142.86-507.25,290.64-538.33,25.08-3.97,49.23,.03,71.75,11.85,110.56,58.03,170.54,302.52,234.06,561.37,64.93,264.64,138.39,564.02,264.18,564.02,2.02,0,4.06-.08,6.11-.23l2.87,23.04c-3.13,.24-6.21,.35-9.28,.35-119.74,0-188.19-180.74-248.33-406.11-5.82-21.77-14.46-43.06-25.79-63.46l-.18-.33c-57.3-103.1-122.84-185.93-228.89-185.93-136.93,0-208.71,142.64-278.13,280.59-71.83,142.75-146.11,290.36-296.48,290.36-150.36,0-224.65-147.62-296.48-290.36-69.41-137.94-141.18-280.59-278.12-280.59-136.95,0-208.72,142.64-278.14,280.59-71.83,142.75-146.12,290.36-296.49,290.36-102.05,0-169.05-67.97-224.02-156.27-44.85-72.04-76.24-149.63-95.63-229.51l-24.79-102.12Z"/>
        <path class="cls-3" d="M3040.15,826.36c66.29,21.88,113.9,61.71,164.3,103.87,61.23,51.22,130.63,109.28,250.1,149.3,129.62,40.49,194.94-205.93,270.28-348.79,11.17-20.64,22.19-42.17,33.87-64.97,63.12-123.29,134.66-263.03,260.69-316.93,39.55-17.06,76.63-17.18,110.21-.37,91.05,45.57,145.05,208.04,196.8,384.78,7.22,24.25,14.43,49.03,21.71,74.08,62.93,216.3,134.26,461.45,257.36,511.01,21.87,9.99,41.72,9.87,60.67-.41,95.47-51.7,155.99-342.47,214.51-623.67,70.24-337.44,142.86-686.38,290.64-728.43,25.08-5.36,49.23,.04,71.75,16.03,110.56,78.51,170.54,409.35,234.06,759.6,64.93,358.11,148.25,869.21,274.05,869.21,2.02,0,4.06-.1,6.11-.31l2.87,31.19c-3.13,.32-6.21,.48-9.28,.48-119.74,0-198.05-350.57-258.2-655.53-5.82-29.47-14.46-58.27-25.79-85.88l-.18-.44c-57.3-139.51-122.84-251.58-228.89-251.58-136.93,0-208.71,193.01-278.13,379.67-71.83,193.16-146.11,392.89-296.48,392.89-150.36,0-224.65-199.73-296.48-392.89-69.41-186.66-141.18-379.67-278.12-379.67-136.95,0-208.72,193.02-278.14,379.67-71.83,193.16-146.12,392.89-296.49,392.89-150.38,0-224.66-123.96-296.49-317.12-42.77-115-86.66-131.92-145.79-205.06-25.56-31.62-61.58-51.05-100.62-56.01-28.7-3.65-59.92-4.15-94.25-1.54l-2.12-31.24c63.66-4.86,117.8,.45,165.5,16.2"/>
        <path class="cls-3" d="M3322.07,240.19c66.29,21.88,321.66,21.15,372.06,63.3,61.23,51.22-359.05,597.94-239.58,637.96,129.62,40.49,194.94-205.93,270.28-348.79,11.17-20.64,22.19-42.17,33.87-64.97,63.12-123.29,134.66-263.03,260.69-316.93,39.55-17.06,76.63-17.18,110.21-.37,91.05,45.57,145.05,208.04,196.8,384.78,7.22,24.25,14.43,49.03,21.71,74.08,62.93,216.3,134.26,461.45,257.36,511.01,21.87,9.99,41.72,9.87,60.67-.41,95.47-51.7,155.99-342.47,214.51-623.67,70.24-337.44,142.86-686.38,290.64-728.43,25.08-5.36,49.23,.04,71.75,16.03,110.56,78.51,170.54,409.35,234.06,759.6,64.93,358.11,148.25,869.21,274.05,869.21,2.02,0,4.06-.1,6.11-.31l2.87,31.19c-3.13,.32-6.21,.48-9.28,.48-119.74,0-198.05-350.57-258.2-655.53-5.82-29.47-14.46-58.27-25.79-85.88l-.18-.44c-57.3-139.51-122.84-251.58-228.89-251.58-136.93,0-208.71,193.01-278.13,379.67-71.83,193.16-146.11,392.89-296.48,392.89-150.36,0-224.65-199.73-296.48-392.89-69.41-186.66-141.18-379.67-278.12-379.67-136.95,0-208.72,193.02-278.14,379.67-71.83,193.16-146.12,392.89-296.49,392.89-150.38,0-224.66,14.12-296.49-179.04-42.77-115-129.89,1.7-189.02-71.45-25.56-31.62-18.36-125.48-57.39-130.45-28.7-3.65-150.47,.53-184.8,3.14l96.37-701.3c63.66-4.86,40.73,90.62,88.43,106.38"/>
        <path class="cls-3" d="M3040.15,491.02c66.29,21.88,113.9,61.71,164.3,103.87,61.23,51.22,130.63,109.28,250.1,149.3,129.62,40.49,194.94-205.93,270.28-348.79,11.17-20.64,22.19-42.17,33.87-64.97,63.12-123.29,134.66-263.03,260.69-316.93,39.55-17.06,76.63-17.18,110.21-.37,91.05,45.57,145.05,208.04,196.8,384.78,7.22,24.25,14.43,49.03,21.71,74.08,62.93,216.3,134.26,461.45,257.36,511.01,21.87,9.99,41.72,9.87,60.67-.41,95.47-51.7,155.99-342.47,214.51-623.67,70.24-337.44,142.86-686.38,290.64-728.43,25.08-5.36,49.23,.04,71.75,16.03,110.56,78.51,170.54,409.35,234.06,759.6,64.93,358.11,148.25,869.21,274.05,869.21,2.02,0,4.06-.1,6.11-.31l2.87,31.19c-3.13,.32-6.21,.48-9.28,.48-119.74,0-198.05-350.57-258.2-655.53-5.82-29.47-14.46-58.27-25.79-85.88l-.18-.44c-57.3-139.51-122.84-251.58-228.89-251.58-136.93,0-208.71,193.01-278.13,379.67-71.83,193.16-146.11,392.89-296.48,392.89-150.36,0-224.65-199.73-296.48-392.89-69.41-186.66-141.18-379.67-278.12-379.67-136.95,0-208.72,193.02-278.14,379.67-71.83,193.16-146.12,392.89-296.49,392.89-150.38,0-224.66-123.96-296.49-317.12-42.77-115-86.66-131.92-145.79-205.06-25.56-31.62-61.58-51.05-100.62-56.01-28.7-3.65-59.92-4.15-94.25-1.54l-2.12-31.24c63.66-4.86,117.8,.45,165.5,16.2"/>
        <path class="cls-3" d="M3040.15,293.76c66.29,21.88,113.9,61.71,164.3,103.87,61.23,51.22,130.63,109.28,250.1,149.3,129.62,40.49,194.94-205.93,270.28-348.79,11.17-20.64,22.19-42.17,33.87-64.97,63.12-123.29,134.66-263.03,260.69-316.93,39.55-17.06,76.63-17.18,110.21-.37,91.05,45.57,145.05,208.04,196.8,384.78,7.22,24.25,14.43,49.03,21.71,74.08,62.93,216.3,134.26,461.45,257.36,511.01,21.87,9.99,41.72,9.87,60.67-.41,95.47-51.7,155.99-342.47,214.51-623.67,70.24-337.44,142.86-686.38,290.64-728.43,25.08-5.36,49.23,.04,71.75,16.03,110.56,78.51,170.54,409.35,234.06,759.6,64.93,358.11,148.25,869.21,274.05,869.21,2.02,0,4.06-.1,6.11-.31l2.87,31.19c-3.13,.32-6.21,.48-9.28,.48-119.74,0-198.05-350.57-258.2-655.53-5.82-29.47-14.46-58.27-25.79-85.88l-.18-.44c-57.3-139.51-122.84-251.58-228.89-251.58-136.93,0-208.71,193.01-278.13,379.67-71.83,193.16-146.11,392.89-296.48,392.89-150.36,0-224.65-199.73-296.48-392.89-69.41-186.66-141.18-379.67-278.12-379.67-136.95,0-208.72,193.02-278.14,379.67-71.83,193.16-146.12,392.89-296.49,392.89-150.38,0-224.66-123.96-296.49-317.12-42.77-115-86.66-131.92-145.79-205.06-25.56-31.62-61.58-51.05-100.62-56.01-28.7-3.65-59.92-4.15-94.25-1.54l-2.12-31.24c63.66-4.86,117.8,.45,165.5,16.2"/>
        <path class="cls-3" d="M3040.15-2.14c66.29,21.88,113.9,61.71,164.3,103.87,61.23,51.22,130.63,109.28,250.1,149.3,129.62,40.49,194.94-205.93,270.28-348.79,11.17-20.64,22.19-42.17,33.87-64.97,63.12-123.29,134.66-263.03,260.69-316.93,39.55-17.06,76.63-17.18,110.21-.37,91.05,45.57,145.05,208.04,196.8,384.78,7.22,24.25,14.43,49.03,21.71,74.08,62.93,216.3,134.26,461.45,257.36,511.01,21.87,9.99,41.72,9.87,60.67-.41,95.47-51.7,155.99-342.47,214.51-623.67,70.24-337.44,142.86-686.38,290.64-728.43,25.08-5.36,49.23,.04,71.75,16.03,110.56,78.51,170.54,409.35,234.06,759.6,64.93,358.11,148.25,869.21,274.05,869.21,2.02,0,4.06-.1,6.11-.31l2.87,31.19c-3.13,.32-6.21,.48-9.28,.48-119.74,0-198.05-350.57-258.2-655.53-5.82-29.47-14.46-58.27-25.79-85.88l-.18-.44c-57.3-139.51-122.84-251.58-228.89-251.58-136.93,0-208.71,193.01-278.13,379.67-71.83,193.16-286.23,1049.37-436.6,1049.37-150.36,0-251.44-258.24-323.27-451.4-69.41-186.66,25.72-977.64-111.22-977.64-136.95,0-208.72,193.02-278.14,379.67-71.83,193.16-146.12,392.89-296.49,392.89-150.38,0-224.66-123.96-296.49-317.12-42.77-115-86.66-131.92-145.79-205.06-25.56-31.62-61.58-51.05-100.62-56.01-28.7-3.65-59.92-4.15-94.25-1.54l-2.12-31.24c63.66-4.86,117.8,.45,165.5,16.2"/>
        <path class="cls-4" d="M3176.47,1320.7c61.23,37.85,165.6,75.19,285.07,104.76,129.62,29.92,194.94-21.52,270.28-127.1,11.17-15.25,22.19-31.16,33.87-48.02,63.12-91.12,134.66-194.38,260.69-234.21,39.55-12.6,76.63-12.7,110.21-.28,91.05,33.68,145.05,153.75,196.8,284.37,7.22,17.92,14.43,36.24,21.71,54.74,62.93,159.85,134.26,341.03,257.36,377.65,21.87,7.38,41.72,7.29,60.67-.3,95.47-38.21,155.99-253.1,214.51-460.92,70.24-249.38,142.86-507.25,290.64-538.33,25.08-3.97,49.23,.03,71.75,11.85,110.56,58.03,170.54,302.52,234.06,561.37,64.93,264.64,138.39,564.02,264.18,564.02,2.02,0,4.06-.08,6.11-.23l2.87,23.04c-3.13,.24-6.21,.35-9.28,.35-119.74,0-188.19-180.74-248.33-406.11-5.82-21.77-14.46-43.06-25.79-63.46l-.18-.33c-57.3-103.1-122.84-185.93-228.89-185.93-136.93,0-208.71,142.64-278.13,280.59-71.83,142.75-146.11,290.36-296.48,290.36-150.36,0-224.65-147.62-296.48-290.36-69.41-137.94-141.18-280.59-278.12-280.59-136.95,0-208.72,142.64-278.14,280.59-71.83,142.75-146.12,290.36-296.49,290.36-102.05,0-169.05-67.97-224.02-156.27-44.85-72.04-76.24-149.63-95.63-229.51l-24.79-102.12Z"/>
        <g>
          <path class="cls-4" d="M3922.51,1435.66c45.49-58.8,99.99-99.38,173.03-99.38s127.53,40.58,173.02,99.38h79.46c-4.89-12.41-9.77-24.7-14.64-36.81-51.75-130.62-105.75-250.69-196.8-284.37-33.58-12.43-70.66-12.33-110.21,.28-126.03,39.83-197.57,143.1-260.69,234.21-11.68,16.86-22.69,32.77-33.87,48.02-9.88,13.84-19.58,26.75-29.29,38.67h219.98Z"/>
          <path class="cls-4" d="M2924.89,1435.66h441.63c-123.16-167.81-278.84-515.22-326.37-544.61l-165.5,478c4.04,16.63,22.75,39.76,50.24,66.61Z"/>
        </g>
        <path class="cls-3" d="M3040.15,891.06c66.29,18.75,113.9,52.87,164.3,89,61.23,43.89,130.63,93.63,250.1,127.93,129.62,34.7,194.94-24.96,270.28-147.37,11.17-17.68,22.19-36.13,33.87-55.67,63.12-105.64,134.66-225.37,260.69-271.55,39.55-14.62,76.63-14.73,110.21-.32,91.05,39.04,145.05,178.27,196.8,329.7,7.22,20.78,14.43,42.02,21.71,63.47,62.93,185.33,134.26,395.39,257.36,437.85,21.87,8.57,41.72,8.46,60.67-.35,95.47-44.3,155.99-293.45,214.51-534.39,70.24-289.14,142.86-588.12,290.64-624.15,25.08-4.6,49.23,.03,71.75,13.73,110.56,67.27,170.54,350.75,234.06,650.86,64.93,306.83,148.25,704.46,274.05,704.46,2.02,0,4.06-.08,6.11-.27l2.87,26.72c-3.13,.27-6.21,.4-9.28,.4-119.74,0-198.05-260.06-258.2-521.37-5.82-25.25-14.46-49.93-25.79-73.58l-.18-.38c-57.3-119.54-122.84-215.57-228.89-215.57-136.93,0-208.71,165.38-278.13,325.32-71.83,165.51-146.11,336.65-296.48,336.65-150.36,0-224.65-171.14-296.48-336.65-69.41-159.94-141.18-325.32-278.12-325.32-136.95,0-208.72,165.38-278.14,325.32-71.83,165.51-146.12,336.65-296.49,336.65-150.38,0-224.66-171.14-296.49-336.65-42.77-98.53-86.66-199.6-145.79-262.27-25.56-27.09-61.58-43.75-100.62-48-28.7-3.12-59.92-3.56-94.25-1.32l-2.12-26.77c63.66-4.16,117.8,.39,165.5,13.88"/>
        <path class="cls-4" d="M4470.92,967.24v-86.04h35.58c27.22,0,41.74,13.43,41.74,38.48,0,17.06-7.26,31.58-19.61,39.21-9.79,6.17-19.96,8.35-38.83,8.35h-18.88Zm-124.5,72.59h181.13c40.29,0,74.05-9.8,101.64-30.13,32.3-23.59,47.92-55.17,47.92-98.73,0-33.76-10.17-60.98-30.13-81.31-21.78-22.14-49.36-31.94-89.29-31.94h-211.26v242.11Zm-29.04,0v-242.11h-117.61v101.27l-68.97-101.27h-124.87v242.11h117.61v-108.53l84.21,108.53h109.63Zm-639.23-242.11v143.01c0,19.23,1.09,34.12,3.63,43.56,4.36,16.33,16.33,30.85,33.03,39.57,26.87,14.52,62.08,21.05,112.89,21.05,73.32,0,119.79-14.88,138.67-44.29,7.61-12.7,10.52-27.22,10.52-56.62v-146.28h-124.5v148.82c0,11.61-1.09,17.42-3.63,21.05-3.63,5.09-11.98,8.35-21.06,8.35s-17.78-3.26-21.41-8.35c-2.54-3.63-3.63-9.44-3.63-21.05v-148.82h-124.51Zm-189.48,75.14c27.59,0,42.11,15.97,42.11,46.46,0,38.48-13.79,57.34-41.74,57.34s-41.38-18.87-41.38-57.34c0-30.13,14.52-46.46,41.01-46.46m2.54-82.04c-115.06,0-169.15,41.02-169.15,128.51,0,42.46,14.88,77.67,41.38,96.91,28.32,20.33,70.06,30.49,125.6,30.49s97.64-10.16,125.96-30.49c26.49-19.24,41.38-54.45,41.38-97.28,0-46.1-15.97-80.58-46.1-100.19-28.31-18.15-69.33-27.95-119.06-27.95m-462.81,241.75c52.63,9.44,84.94,12.34,135.39,12.34,54.45,0,81.68-5.44,106.72-21.05,23.6-14.88,37.76-39.57,37.76-66.06s-15.25-51.54-38.11-60.26c-14.16-5.08-40.3-9.07-62.43-9.07h-43.57c-7.98,0-13.43-3.98-13.43-9.79,0-7.99,6.54-11.25,23.24-11.25h27.22c21.41,0,71.87,4.35,97.64,8.34v-71.14c-40.66-7.62-84.94-11.98-126.68-11.98-51.18,0-88.21,6.54-113.26,19.61-23.59,12.7-37.02,37.75-37.02,68.96,0,44.29,23.96,68.61,73.32,74.05,13.79,1.81,37.38,3.26,47.91,3.26h20.33c13.42,0,17.05,1.81,17.05,8.72,0,6.53-5.81,10.52-16.7,10.52-43.19,0-80.95-3.26-135.39-11.62v66.43Z"/>
        <path class="cls-4" d="M3880.34,598.61v-35.58h52.64c15.6,0,21.41,5.08,21.41,17.78s-5.81,17.79-21.41,17.79h-52.64Zm0-84.22v-35.93h46.46c17.06,0,23.23,4.71,23.23,17.78s-6.16,18.15-23.23,18.15h-46.46Zm-124.5,142.29h230.14c54.81,0,90.39-25.41,90.39-64.61,0-19.96-10.53-37.75-27.59-45.74-11.25-5.81-20.33-7.99-41.02-9.8,19.96-4.35,29.4-7.98,40.66-15.6,16.33-11.25,26.14-29.04,26.14-48.28,0-17.06-7.26-32.3-20.33-43.19-13.07-10.53-27.59-14.88-50.82-14.88h-247.55v242.11Zm-26.5,0v-63.52h-153.17v-20.33h153.17v-58.08h-153.17v-22.51h153.17v-77.67h-277.69v242.11h277.69Zm-352.09,0l67.15-242.11h-122.69l-25.77,115.79-26.86-115.79h-82.04l-29.04,119.78-25.04-119.78h-125.23l67.88,242.11h118.69l30.86-110.35,30.49,110.35h121.6Z"/>
      </g>
      <g>
        <path class="cls-6" d="M4470.92,967.24v-86.04h35.58c27.22,0,41.74,13.43,41.74,38.48,0,17.06-7.26,31.58-19.61,39.21-9.79,6.17-19.96,8.35-38.83,8.35h-18.88Zm-124.5,72.59h181.13c40.29,0,74.05-9.8,101.64-30.13,32.3-23.59,47.92-55.17,47.92-98.73,0-33.76-10.17-60.98-30.13-81.31-21.78-22.14-49.36-31.94-89.29-31.94h-211.26v242.11Zm-29.04,0v-242.11h-117.61v101.27l-68.97-101.27h-124.87v242.11h117.61v-108.53l84.21,108.53h109.63Zm-639.23-242.11v143.01c0,19.23,1.09,34.12,3.63,43.56,4.36,16.33,16.33,30.85,33.03,39.57,26.87,14.52,62.08,21.05,112.89,21.05,73.32,0,119.79-14.88,138.67-44.29,7.61-12.7,10.52-27.22,10.52-56.62v-146.28h-124.5v148.82c0,11.61-1.09,17.42-3.63,21.05-3.63,5.09-11.98,8.35-21.06,8.35s-17.78-3.26-21.41-8.35c-2.54-3.63-3.63-9.44-3.63-21.05v-148.82h-124.51Zm-189.48,75.14c27.59,0,42.11,15.97,42.11,46.46,0,38.48-13.79,57.34-41.74,57.34s-41.38-18.87-41.38-57.34c0-30.13,14.52-46.46,41.01-46.46m2.54-82.04c-115.06,0-169.15,41.02-169.15,128.51,0,42.46,14.88,77.67,41.38,96.91,28.32,20.33,70.06,30.49,125.6,30.49s97.64-10.16,125.96-30.49c26.49-19.24,41.38-54.45,41.38-97.28,0-46.1-15.97-80.58-46.1-100.19-28.31-18.15-69.33-27.95-119.06-27.95m-462.81,241.75c52.63,9.44,84.94,12.34,135.39,12.34,54.45,0,81.68-5.44,106.72-21.05,23.6-14.88,37.76-39.57,37.76-66.06s-15.25-51.54-38.11-60.26c-14.16-5.08-40.3-9.07-62.43-9.07h-43.57c-7.98,0-13.43-3.98-13.43-9.79,0-7.99,6.54-11.25,23.24-11.25h27.22c21.41,0,71.87,4.35,97.64,8.34v-71.14c-40.66-7.62-84.94-11.98-126.68-11.98-51.18,0-88.21,6.54-113.26,19.61-23.59,12.7-37.02,37.75-37.02,68.96,0,44.29,23.96,68.61,73.32,74.05,13.79,1.81,37.38,3.26,47.91,3.26h20.33c13.42,0,17.05,1.81,17.05,8.72,0,6.53-5.81,10.52-16.7,10.52-43.19,0-80.95-3.26-135.39-11.62v66.43Z"/>
        <g class="cls-7">
          <path class="cls-3" d="M3040.15,885.54c66.29,21.88,113.9,61.71,164.3,103.87,61.23,51.22,130.63,109.28,250.1,149.3,129.62,40.49,194.94-205.93,270.28-348.79,11.17-20.64,22.19-42.17,33.87-64.97,63.12-123.29,134.66-263.03,260.69-316.93,39.55-17.06,76.63-17.18,110.21-.37,91.05,45.57,145.05,208.04,196.8,384.78,7.22,24.25,14.43,49.03,21.71,74.08,62.93,216.3,134.26,461.45,257.36,511.01,21.87,9.99,41.72,9.87,60.67-.41,95.47-51.7,155.99-342.47,214.51-623.67,70.24-337.44,142.86-686.38,290.64-728.43,25.08-5.36,49.23,.04,71.75,16.03,110.56,78.51,170.54,409.35,234.06,759.6,64.93,358.11,148.25,869.21,274.05,869.21,2.02,0,4.06-.1,6.11-.31l2.87,31.19c-3.13,.32-6.21,.48-9.28,.48-119.74,0-198.05-350.57-258.2-655.53-5.82-29.47-14.46-58.27-25.79-85.88l-.18-.44c-57.3-139.51-122.84-251.58-228.89-251.58-136.93,0-208.71,193.01-278.13,379.67-71.83,193.16-146.11,392.89-296.48,392.89-150.36,0-224.65-199.73-296.48-392.89-69.41-186.66-141.18-379.67-278.12-379.67-136.95,0-208.72,193.02-278.14,379.67-71.83,193.16-146.12,392.89-296.49,392.89-150.38,0-224.66-123.96-296.49-317.12-42.77-115-86.66-131.92-145.79-205.06-25.56-31.62-61.58-51.05-100.62-56.01-28.7-3.65-59.92-4.15-94.25-1.54l-2.12-31.24c63.66-4.86,117.8,.45,165.5,16.2"/>
          <path class="cls-4" d="M3176.47,1123.44c61.23,37.85,165.6,75.19,285.07,104.76,129.62,29.92,194.94-21.52,270.28-127.1,11.17-15.25,22.19-31.16,33.87-48.02,63.12-91.12,134.66-194.38,260.69-234.21,39.55-12.6,76.63-12.7,110.21-.28,91.05,33.68,145.05,153.75,196.8,284.37,7.22,17.92,14.43,36.24,21.71,54.74,62.93,159.85,134.26,341.03,257.36,377.65,21.87,7.38,41.72,7.29,60.67-.3,95.47-38.21,155.99-253.1,214.51-460.92,70.24-249.38,142.86-507.25,290.64-538.33,25.08-3.97,49.23,.03,71.75,11.85,110.56,58.03,170.54,302.52,234.06,561.37,64.93,264.64,138.39,564.02,264.18,564.02,2.02,0,4.06-.08,6.11-.23l2.87,23.04c-3.13,.24-6.21,.35-9.28,.35-119.74,0-188.19-180.74-248.33-406.11-5.82-21.77-14.46-43.06-25.79-63.46l-.18-.33c-57.3-103.1-122.84-185.93-228.89-185.93-136.93,0-208.71,142.64-278.13,280.59-71.83,142.75-146.11,290.36-296.48,290.36-150.36,0-224.65-147.62-296.48-290.36-69.41-137.94-141.18-280.59-278.12-280.59-136.95,0-208.72,142.64-278.14,280.59-71.83,142.75-146.12,290.36-296.49,290.36-102.05,0-169.05-67.97-224.02-156.27-44.85-72.04-76.24-149.63-95.63-229.51l-24.79-102.12Z"/>
          <path class="cls-3" d="M3040.15,826.36c66.29,21.88,113.9,61.71,164.3,103.87,61.23,51.22,130.63,109.28,250.1,149.3,129.62,40.49,194.94-205.93,270.28-348.79,11.17-20.64,22.19-42.17,33.87-64.97,63.12-123.29,134.66-263.03,260.69-316.93,39.55-17.06,76.63-17.18,110.21-.37,91.05,45.57,145.05,208.04,196.8,384.78,7.22,24.25,14.43,49.03,21.71,74.08,62.93,216.3,134.26,461.45,257.36,511.01,21.87,9.99,41.72,9.87,60.67-.41,95.47-51.7,155.99-342.47,214.51-623.67,70.24-337.44,142.86-686.38,290.64-728.43,25.08-5.36,49.23,.04,71.75,16.03,110.56,78.51,170.54,409.35,234.06,759.6,64.93,358.11,148.25,869.21,274.05,869.21,2.02,0,4.06-.1,6.11-.31l2.87,31.19c-3.13,.32-6.21,.48-9.28,.48-119.74,0-198.05-350.57-258.2-655.53-5.82-29.47-14.46-58.27-25.79-85.88l-.18-.44c-57.3-139.51-122.84-251.58-228.89-251.58-136.93,0-208.71,193.01-278.13,379.67-71.83,193.16-146.11,392.89-296.48,392.89-150.36,0-224.65-199.73-296.48-392.89-69.41-186.66-141.18-379.67-278.12-379.67-136.95,0-208.72,193.02-278.14,379.67-71.83,193.16-146.12,392.89-296.49,392.89-150.38,0-224.66-123.96-296.49-317.12-42.77-115-86.66-131.92-145.79-205.06-25.56-31.62-61.58-51.05-100.62-56.01-28.7-3.65-59.92-4.15-94.25-1.54l-2.12-31.24c63.66-4.86,117.8,.45,165.5,16.2"/>
          <path class="cls-5" d="M3322.07,240.19c66.29,21.88,321.66,21.15,372.06,63.3,61.23,51.22-359.05,597.94-239.58,637.96,129.62,40.49,194.94-205.93,270.28-348.79,11.17-20.64,22.19-42.17,33.87-64.97,63.12-123.29,134.66-263.03,260.69-316.93,39.55-17.06,76.63-17.18,110.21-.37,91.05,45.57,145.05,208.04,196.8,384.78,7.22,24.25,14.43,49.03,21.71,74.08,62.93,216.3,134.26,461.45,257.36,511.01,21.87,9.99,41.72,9.87,60.67-.41,95.47-51.7,155.99-342.47,214.51-623.67,70.24-337.44,142.86-686.38,290.64-728.43,25.08-5.36,49.23,.04,71.75,16.03,110.56,78.51,170.54,409.35,234.06,759.6,64.93,358.11,148.25,869.21,274.05,869.21,2.02,0,4.06-.1,6.11-.31l2.87,31.19c-3.13,.32-6.21,.48-9.28,.48-119.74,0-198.05-350.57-258.2-655.53-5.82-29.47-14.46-58.27-25.79-85.88l-.18-.44c-57.3-139.51-122.84-251.58-228.89-251.58-136.93,0-208.71,193.01-278.13,379.67-71.83,193.16-146.11,392.89-296.48,392.89-150.36,0-224.65-199.73-296.48-392.89-69.41-186.66-141.18-379.67-278.12-379.67-136.95,0-208.72,193.02-278.14,379.67-71.83,193.16-146.12,392.89-296.49,392.89-150.38,0-224.66,14.12-296.49-179.04-42.77-115-129.89,1.7-189.02-71.45-25.56-31.62-18.36-125.48-57.39-130.45-28.7-3.65-150.47,.53-184.8,3.14l96.37-701.3c63.66-4.86,40.73,90.62,88.43,106.38"/>
          <path class="cls-5" d="M3040.15,491.02c66.29,21.88,113.9,61.71,164.3,103.87,61.23,51.22,130.63,109.28,250.1,149.3,129.62,40.49,194.94-205.93,270.28-348.79,11.17-20.64,22.19-42.17,33.87-64.97,63.12-123.29,134.66-263.03,260.69-316.93,39.55-17.06,76.63-17.18,110.21-.37,91.05,45.57,145.05,208.04,196.8,384.78,7.22,24.25,14.43,49.03,21.71,74.08,62.93,216.3,134.26,461.45,257.36,511.01,21.87,9.99,41.72,9.87,60.67-.41,95.47-51.7,155.99-342.47,214.51-623.67,70.24-337.44,142.86-686.38,290.64-728.43,25.08-5.36,49.23,.04,71.75,16.03,110.56,78.51,170.54,409.35,234.06,759.6,64.93,358.11,148.25,869.21,274.05,869.21,2.02,0,4.06-.1,6.11-.31l2.87,31.19c-3.13,.32-6.21,.48-9.28,.48-119.74,0-198.05-350.57-258.2-655.53-5.82-29.47-14.46-58.27-25.79-85.88l-.18-.44c-57.3-139.51-122.84-251.58-228.89-251.58-136.93,0-208.71,193.01-278.13,379.67-71.83,193.16-146.11,392.89-296.48,392.89-150.36,0-224.65-199.73-296.48-392.89-69.41-186.66-141.18-379.67-278.12-379.67-136.95,0-208.72,193.02-278.14,379.67-71.83,193.16-146.12,392.89-296.49,392.89-150.38,0-224.66-123.96-296.49-317.12-42.77-115-86.66-131.92-145.79-205.06-25.56-31.62-61.58-51.05-100.62-56.01-28.7-3.65-59.92-4.15-94.25-1.54l-2.12-31.24c63.66-4.86,117.8,.45,165.5,16.2"/>
          <path class="cls-5" d="M3040.15,293.76c66.29,21.88,113.9,61.71,164.3,103.87,61.23,51.22,130.63,109.28,250.1,149.3,129.62,40.49,194.94-205.93,270.28-348.79,11.17-20.64,22.19-42.17,33.87-64.97,63.12-123.29,134.66-263.03,260.69-316.93,39.55-17.06,76.63-17.18,110.21-.37,91.05,45.57,145.05,208.04,196.8,384.78,7.22,24.25,14.43,49.03,21.71,74.08,62.93,216.3,134.26,461.45,257.36,511.01,21.87,9.99,41.72,9.87,60.67-.41,95.47-51.7,155.99-342.47,214.51-623.67,70.24-337.44,142.86-686.38,290.64-728.43,25.08-5.36,49.23,.04,71.75,16.03,110.56,78.51,170.54,409.35,234.06,759.6,64.93,358.11,148.25,869.21,274.05,869.21,2.02,0,4.06-.1,6.11-.31l2.87,31.19c-3.13,.32-6.21,.48-9.28,.48-119.74,0-198.05-350.57-258.2-655.53-5.82-29.47-14.46-58.27-25.79-85.88l-.18-.44c-57.3-139.51-122.84-251.58-228.89-251.58-136.93,0-208.71,193.01-278.13,379.67-71.83,193.16-146.11,392.89-296.48,392.89-150.36,0-224.65-199.73-296.48-392.89-69.41-186.66-141.18-379.67-278.12-379.67-136.95,0-208.72,193.02-278.14,379.67-71.83,193.16-146.12,392.89-296.49,392.89-150.38,0-224.66-123.96-296.49-317.12-42.77-115-86.66-131.92-145.79-205.06-25.56-31.62-61.58-51.05-100.62-56.01-28.7-3.65-59.92-4.15-94.25-1.54l-2.12-31.24c63.66-4.86,117.8,.45,165.5,16.2"/>
          <path class="cls-5" d="M3040.15-2.14c66.29,21.88,113.9,61.71,164.3,103.87,61.23,51.22,130.63,109.28,250.1,149.3,129.62,40.49,194.94-205.93,270.28-348.79,11.17-20.64,22.19-42.17,33.87-64.97,63.12-123.29,134.66-263.03,260.69-316.93,39.55-17.06,76.63-17.18,110.21-.37,91.05,45.57,145.05,208.04,196.8,384.78,7.22,24.25,14.43,49.03,21.71,74.08,62.93,216.3,134.26,461.45,257.36,511.01,21.87,9.99,41.72,9.87,60.67-.41,95.47-51.7,155.99-342.47,214.51-623.67,70.24-337.44,142.86-686.38,290.64-728.43,25.08-5.36,49.23,.04,71.75,16.03,110.56,78.51,170.54,409.35,234.06,759.6,64.93,358.11,148.25,869.21,274.05,869.21,2.02,0,4.06-.1,6.11-.31l2.87,31.19c-3.13,.32-6.21,.48-9.28,.48-119.74,0-198.05-350.57-258.2-655.53-5.82-29.47-14.46-58.27-25.79-85.88l-.18-.44c-57.3-139.51-122.84-251.58-228.89-251.58-136.93,0-208.71,193.01-278.13,379.67-71.83,193.16-286.23,1049.37-436.6,1049.37-150.36,0-251.44-258.24-323.27-451.4-69.41-186.66,25.72-977.64-111.22-977.64-136.95,0-208.72,193.02-278.14,379.67-71.83,193.16-146.12,392.89-296.49,392.89-150.38,0-224.66-123.96-296.49-317.12-42.77-115-86.66-131.92-145.79-205.06-25.56-31.62-61.58-51.05-100.62-56.01-28.7-3.65-59.92-4.15-94.25-1.54l-2.12-31.24c63.66-4.86,117.8,.45,165.5,16.2"/>
          <path class="cls-4" d="M3176.47,1320.7c61.23,37.85,165.6,75.19,285.07,104.76,129.62,29.92,194.94-21.52,270.28-127.1,11.17-15.25,22.19-31.16,33.87-48.02,63.12-91.12,134.66-194.38,260.69-234.21,39.55-12.6,76.63-12.7,110.21-.28,91.05,33.68,145.05,153.75,196.8,284.37,7.22,17.92,14.43,36.24,21.71,54.74,62.93,159.85,134.26,341.03,257.36,377.65,21.87,7.38,41.72,7.29,60.67-.3,95.47-38.21,155.99-253.1,214.51-460.92,70.24-249.38,142.86-507.25,290.64-538.33,25.08-3.97,49.23,.03,71.75,11.85,110.56,58.03,170.54,302.52,234.06,561.37,64.93,264.64,138.39,564.02,264.18,564.02,2.02,0,4.06-.08,6.11-.23l2.87,23.04c-3.13,.24-6.21,.35-9.28,.35-119.74,0-188.19-180.74-248.33-406.11-5.82-21.77-14.46-43.06-25.79-63.46l-.18-.33c-57.3-103.1-122.84-185.93-228.89-185.93-136.93,0-208.71,142.64-278.13,280.59-71.83,142.75-146.11,290.36-296.48,290.36-150.36,0-224.65-147.62-296.48-290.36-69.41-137.94-141.18-280.59-278.12-280.59-136.95,0-208.72,142.64-278.14,280.59-71.83,142.75-146.12,290.36-296.49,290.36-102.05,0-169.05-67.97-224.02-156.27-44.85-72.04-76.24-149.63-95.63-229.51l-24.79-102.12Z"/>
          <g>
            <path class="cls-4" d="M3196.93,1092.66c-77.41-107.11-143.55-201.01-168.78-216.61l-75,216.61h243.78Z"/>
            <path class="cls-4" d="M4099.55,1092.66c-17.88-3.22-36.6-3.23-56.02,0h56.02Z"/>
          </g>
          <path class="cls-3" d="M3040.15,871.06c66.29,18.75,113.9,52.87,164.3,89,61.23,43.89,130.63,93.63,250.1,127.93,129.62,34.7,194.94-24.96,270.28-147.37,11.17-17.68,22.19-36.13,33.87-55.67,63.12-105.64,134.66-225.37,260.69-271.55,39.55-14.62,76.63-14.73,110.21-.32,91.05,39.04,155.05,178.27,206.8,329.7,7.22,20.78,14.43,42.02,21.71,63.47,62.93,185.33,124.26,395.39,247.36,437.85,21.87,8.57,41.72,8.46,60.67-.35,95.47-44.3,155.99-293.45,214.51-534.39,70.24-289.14,142.86-588.12,290.64-624.15,25.08-4.6,49.23,.03,71.75,13.73,110.56,67.27,170.54,350.75,234.06,650.86,64.93,306.83,148.25,704.46,274.05,704.46,2.02,0,4.06-.08,6.11-.27l2.87,26.72c-3.13,.27-6.21,.4-9.28,.4-119.74,0-198.05-260.06-258.2-521.37-5.82-25.25-14.46-49.93-25.79-73.58l-.18-.38c-57.3-119.54-122.84-215.57-228.89-215.57-136.93,0-208.71,165.38-278.13,325.32-71.83,165.51-146.11,336.65-296.48,336.65-150.36,0-224.65-171.14-296.48-336.65-69.41-159.94-141.18-325.32-278.12-325.32-136.95,0-208.72,165.38-278.14,325.32-71.83,165.51-146.12,336.65-296.49,336.65-150.38,0-224.66-171.14-296.49-336.65-42.77-98.53-86.66-199.6-145.79-262.27-25.56-27.09-61.58-43.75-100.62-48-28.7-3.12-59.92-3.56-94.25-1.32l-2.12-26.77c63.66-4.16,117.8,.39,165.5,13.88"/>
          <rect class="cls-5" x="2608.1" y="-1018.34" width="3502" height="1791"/>
        </g>
      </g>
      <g class="cls-8">
        <path class="cls-3" d="M4139.1,412.93c-3.12-1.9-6.29-3.67-9.5-5.27-33.58-16.81-70.66-16.69-110.21,.37-126.03,53.89-197.57,193.63-260.69,316.93-11.68,22.8-22.7,44.34-33.87,64.97-75.33,142.86-140.66,389.28-270.28,348.79-119.47-40.03-188.87-98.08-250.1-149.3-50.4-42.16-98.01-81.99-164.3-103.87-47.7-15.75-101.85-21.06-165.5-16.2l2.12,31.24c34.33-2.61,65.55-2.1,94.25,1.54,39.04,4.97,75.06,24.39,100.62,56.01,59.13,73.15,103.02,90.06,145.79,205.06,71.83,193.16,146.11,317.12,296.49,317.12s224.66-199.73,296.49-392.89c69.42-186.65,141.19-379.67,278.14-379.67,17.92,0,34.71,3.31,50.54,9.47V412.93Z"/>
        <path class="cls-1" d="M3040.15-2.14c66.29,21.88,113.9,61.71,164.3,103.87,61.23,51.22,130.63,109.28,250.1,149.3,129.62,40.49,194.94-205.93,270.28-348.79,11.17-20.64,22.19-42.17,33.87-64.97,63.12-123.29,134.66-263.03,260.69-316.93,39.55-17.06,76.63-17.18,110.21-.37,91.05,45.57,145.05,208.04,196.8,384.78,7.22,24.25,14.43,49.03,21.71,74.08,62.93,216.3,134.26,461.45,257.36,511.01,21.87,9.99,41.72,9.87,60.67-.41,95.47-51.7,155.99-342.47,214.51-623.67,70.24-337.44,142.86-686.38,290.64-728.43,25.08-5.36,49.23,.04,71.75,16.03,110.56,78.51,170.54,409.35,234.06,759.6,64.93,358.11,148.25,869.21,274.05,869.21,2.02,0,4.06-.1,6.11-.31l2.87,31.19c-3.13,.32-6.21,.48-9.28,.48-119.74,0-198.05-350.57-258.2-655.53-5.82-29.47-14.46-58.27-25.79-85.88l-.18-.44c-57.3-139.51-122.84-251.58-228.89-251.58-136.93,0-208.71,193.01-278.13,379.67-71.83,193.16-286.23,1049.37-436.6,1049.37-150.36,0-251.44-258.24-323.27-451.4-69.41-186.66,25.72-977.64-111.22-977.64-136.95,0-208.72,193.02-278.14,379.67-71.83,193.16-146.12,392.89-296.49,392.89-150.38,0-224.66-123.96-296.49-317.12-42.77-115-86.66-131.92-145.79-205.06-25.56-31.62-61.58-51.05-100.62-56.01-28.7-3.65-59.92-4.15-94.25-1.54l-2.12-31.24c63.66-4.86,117.8,.45,165.5,16.2"/>
        <path class="cls-3" d="M3040.15,891.06c66.29,18.75,113.9,52.87,164.3,89,61.23,43.89,130.63,93.63,250.1,127.93,129.62,34.7,194.94-24.96,270.28-147.37,11.17-17.68,22.19-36.13,33.87-55.67,63.12-105.64,134.66-225.37,260.69-271.55,39.55-14.62,76.63-14.73,110.21-.32,91.05,39.04,145.05,178.27,196.8,329.7,7.22,20.78,14.43,42.02,21.71,63.47,62.93,185.33,134.26,395.39,257.36,437.85,21.87,8.57,41.72,8.46,60.67-.35,95.47-44.3,155.99-293.45,214.51-534.39,70.24-289.14,142.86-588.12,290.64-624.15,25.08-4.6,49.23,.03,71.75,13.73,110.56,67.27,170.54,350.75,234.06,650.86,64.93,306.83,148.25,704.46,274.05,704.46,2.02,0,4.06-.08,6.11-.27l2.87,26.72c-3.13,.27-6.21,.4-9.28,.4-119.74,0-198.05-260.06-258.2-521.37-5.82-25.25-14.46-49.93-25.79-73.58l-.18-.38c-57.3-119.54-122.84-215.57-228.89-215.57-136.93,0-208.71,165.38-278.13,325.32-71.83,165.51-146.11,336.65-296.48,336.65-150.36,0-224.65-171.14-296.48-336.65-69.41-159.94-141.18-325.32-278.12-325.32-136.95,0-208.72,165.38-278.14,325.32-71.83,165.51-146.12,336.65-296.49,336.65-150.38,0-224.66-171.14-296.49-336.65-42.77-98.53-86.66-199.6-145.79-262.27-25.56-27.09-61.58-43.75-100.62-48-28.7-3.12-59.92-3.56-94.25-1.32l-2.12-26.77c63.66-4.16,117.8,.39,165.5,13.88"/>
        <path class="cls-5" d="M2832.81,390.66l-42.05,306h1064.11c53.61-121.16,117.61-216.16,213.69-216.16,17.16,0,33.3,3.03,48.54,8.7v-98.55h-1284.29Z"/>
        <g>
          <path class="cls-1" d="M3813.86,683.66c68.36-183.72,140.01-370.42,274.7-370.42s206.33,186.69,274.68,370.42h50.15c-23.62-68.5-44.89-141.6-65.28-211.67-7.28-25.05-14.49-49.83-21.71-74.08-51.75-176.73-105.75-339.21-196.8-384.78-33.58-16.81-70.66-16.69-110.21,.37-126.03,53.89-197.57,193.63-260.69,316.93-11.68,22.8-22.7,44.34-33.87,64.97-45.92,87.09-88.13,212.66-143.45,288.26h232.48Z"/>
          <path class="cls-1" d="M2971.02,507.61c39.04,4.97,75.06,24.39,100.62,56.01,40.29,49.85,73.51,73.59,104.12,120.04h147.68c-47.28-28.79-84.44-59.87-118.99-88.77-50.4-42.16-98.01-81.99-164.3-103.87-47.7-15.75-101.85-21.06-165.5-16.2l2.12,31.24c34.33-2.61,65.55-2.1,94.25,1.54Z"/>
        </g>
        <rect class="cls-1" x="2581.1" y="184.66" width="802" height="531"/>
      </g>
    </g>
  </g>
</svg>